<mxfile host="app.diagrams.net" modified="2023-05-29T12:29:19.936Z" agent="Mozilla/5.0 (Macintosh; Intel Mac OS X 10_15_7) AppleWebKit/537.36 (KHTML, like Gecko) Chrome/113.0.0.0 Safari/537.36" etag="431lu-Y_GrK7zw9lKEjo" version="21.3.5" type="github">
  <diagram id="C5RBs43oDa-KdzZeNtuy" name="Page-1">
    <mxGraphModel dx="954" dy="616" grid="1" gridSize="10" guides="1" tooltips="1" connect="1" arrows="1" fold="1" page="1" pageScale="1" pageWidth="3300" pageHeight="4681" math="0" shadow="0">
      <root>
        <mxCell id="WIyWlLk6GJQsqaUBKTNV-0" />
        <mxCell id="WIyWlLk6GJQsqaUBKTNV-1" parent="WIyWlLk6GJQsqaUBKTNV-0" />
        <mxCell id="yT2jcX1gNWG2OGTkNdqD-6" value="" style="edgeStyle=orthogonalEdgeStyle;rounded=0;orthogonalLoop=1;jettySize=auto;html=1;" edge="1" parent="WIyWlLk6GJQsqaUBKTNV-1" source="yT2jcX1gNWG2OGTkNdqD-0" target="yT2jcX1gNWG2OGTkNdqD-4">
          <mxGeometry relative="1" as="geometry" />
        </mxCell>
        <mxCell id="yT2jcX1gNWG2OGTkNdqD-0" value="SysAdmin" style="shape=umlActor;verticalLabelPosition=bottom;verticalAlign=top;html=1;outlineConnect=0;" vertex="1" parent="WIyWlLk6GJQsqaUBKTNV-1">
          <mxGeometry x="80" y="310" width="30" height="60" as="geometry" />
        </mxCell>
        <mxCell id="yT2jcX1gNWG2OGTkNdqD-8" value="" style="edgeStyle=orthogonalEdgeStyle;rounded=0;orthogonalLoop=1;jettySize=auto;html=1;" edge="1" parent="WIyWlLk6GJQsqaUBKTNV-1" source="yT2jcX1gNWG2OGTkNdqD-4" target="yT2jcX1gNWG2OGTkNdqD-7">
          <mxGeometry relative="1" as="geometry" />
        </mxCell>
        <mxCell id="yT2jcX1gNWG2OGTkNdqD-4" value="User Lands on Landing page of company" style="rounded=1;whiteSpace=wrap;html=1;" vertex="1" parent="WIyWlLk6GJQsqaUBKTNV-1">
          <mxGeometry x="200" y="310" width="120" height="60" as="geometry" />
        </mxCell>
        <mxCell id="yT2jcX1gNWG2OGTkNdqD-5" value="&lt;h1&gt;Configuration Flow for 5 users on Web&lt;/h1&gt;" style="text;html=1;strokeColor=none;fillColor=none;spacing=5;spacingTop=-20;whiteSpace=wrap;overflow=hidden;rounded=0;" vertex="1" parent="WIyWlLk6GJQsqaUBKTNV-1">
          <mxGeometry x="80" y="70" width="490" height="40" as="geometry" />
        </mxCell>
        <mxCell id="yT2jcX1gNWG2OGTkNdqD-11" value="Try For Free" style="edgeStyle=orthogonalEdgeStyle;rounded=0;orthogonalLoop=1;jettySize=auto;html=1;" edge="1" parent="WIyWlLk6GJQsqaUBKTNV-1" source="yT2jcX1gNWG2OGTkNdqD-7" target="yT2jcX1gNWG2OGTkNdqD-10">
          <mxGeometry relative="1" as="geometry" />
        </mxCell>
        <mxCell id="yT2jcX1gNWG2OGTkNdqD-12" value="" style="edgeStyle=orthogonalEdgeStyle;rounded=0;orthogonalLoop=1;jettySize=auto;html=1;" edge="1" parent="WIyWlLk6GJQsqaUBKTNV-1" source="yT2jcX1gNWG2OGTkNdqD-7" target="yT2jcX1gNWG2OGTkNdqD-9">
          <mxGeometry relative="1" as="geometry" />
        </mxCell>
        <mxCell id="yT2jcX1gNWG2OGTkNdqD-13" value="Logs In" style="edgeLabel;html=1;align=center;verticalAlign=middle;resizable=0;points=[];" vertex="1" connectable="0" parent="yT2jcX1gNWG2OGTkNdqD-12">
          <mxGeometry x="-0.25" y="1" relative="1" as="geometry">
            <mxPoint as="offset" />
          </mxGeometry>
        </mxCell>
        <mxCell id="yT2jcX1gNWG2OGTkNdqD-7" value="User selection?" style="rhombus;whiteSpace=wrap;html=1;" vertex="1" parent="WIyWlLk6GJQsqaUBKTNV-1">
          <mxGeometry x="380" y="265" width="140" height="150" as="geometry" />
        </mxCell>
        <mxCell id="yT2jcX1gNWG2OGTkNdqD-17" value="" style="edgeStyle=orthogonalEdgeStyle;rounded=0;orthogonalLoop=1;jettySize=auto;html=1;" edge="1" parent="WIyWlLk6GJQsqaUBKTNV-1" source="yT2jcX1gNWG2OGTkNdqD-9" target="yT2jcX1gNWG2OGTkNdqD-16">
          <mxGeometry relative="1" as="geometry" />
        </mxCell>
        <mxCell id="yT2jcX1gNWG2OGTkNdqD-9" value="User is on Log in Page" style="rounded=1;whiteSpace=wrap;html=1;" vertex="1" parent="WIyWlLk6GJQsqaUBKTNV-1">
          <mxGeometry x="600" y="310" width="120" height="60" as="geometry" />
        </mxCell>
        <mxCell id="yT2jcX1gNWG2OGTkNdqD-14" style="edgeStyle=orthogonalEdgeStyle;rounded=0;orthogonalLoop=1;jettySize=auto;html=1;entryX=0.5;entryY=1;entryDx=0;entryDy=0;" edge="1" parent="WIyWlLk6GJQsqaUBKTNV-1" source="yT2jcX1gNWG2OGTkNdqD-10" target="yT2jcX1gNWG2OGTkNdqD-9">
          <mxGeometry relative="1" as="geometry" />
        </mxCell>
        <mxCell id="yT2jcX1gNWG2OGTkNdqD-15" value="Redirected to Login &lt;br&gt;Page" style="edgeLabel;html=1;align=center;verticalAlign=middle;resizable=0;points=[];" vertex="1" connectable="0" parent="yT2jcX1gNWG2OGTkNdqD-14">
          <mxGeometry x="-0.3034" y="-1" relative="1" as="geometry">
            <mxPoint as="offset" />
          </mxGeometry>
        </mxCell>
        <mxCell id="yT2jcX1gNWG2OGTkNdqD-10" value="User selects Try For Free" style="rounded=1;whiteSpace=wrap;html=1;" vertex="1" parent="WIyWlLk6GJQsqaUBKTNV-1">
          <mxGeometry x="390" y="480" width="120" height="60" as="geometry" />
        </mxCell>
        <mxCell id="yT2jcX1gNWG2OGTkNdqD-19" value="" style="edgeStyle=orthogonalEdgeStyle;rounded=0;orthogonalLoop=1;jettySize=auto;html=1;" edge="1" parent="WIyWlLk6GJQsqaUBKTNV-1" source="yT2jcX1gNWG2OGTkNdqD-16" target="yT2jcX1gNWG2OGTkNdqD-18">
          <mxGeometry relative="1" as="geometry" />
        </mxCell>
        <mxCell id="yT2jcX1gNWG2OGTkNdqD-20" value="No" style="edgeLabel;html=1;align=center;verticalAlign=middle;resizable=0;points=[];" vertex="1" connectable="0" parent="yT2jcX1gNWG2OGTkNdqD-19">
          <mxGeometry x="-0.1238" y="1" relative="1" as="geometry">
            <mxPoint as="offset" />
          </mxGeometry>
        </mxCell>
        <mxCell id="yT2jcX1gNWG2OGTkNdqD-22" value="Yes" style="edgeStyle=orthogonalEdgeStyle;rounded=0;orthogonalLoop=1;jettySize=auto;html=1;" edge="1" parent="WIyWlLk6GJQsqaUBKTNV-1" source="yT2jcX1gNWG2OGTkNdqD-16" target="yT2jcX1gNWG2OGTkNdqD-21">
          <mxGeometry relative="1" as="geometry" />
        </mxCell>
        <mxCell id="yT2jcX1gNWG2OGTkNdqD-16" value="First Time User?" style="rhombus;whiteSpace=wrap;html=1;" vertex="1" parent="WIyWlLk6GJQsqaUBKTNV-1">
          <mxGeometry x="800" y="265" width="140" height="150" as="geometry" />
        </mxCell>
        <mxCell id="yT2jcX1gNWG2OGTkNdqD-24" value="" style="edgeStyle=orthogonalEdgeStyle;rounded=0;orthogonalLoop=1;jettySize=auto;html=1;" edge="1" parent="WIyWlLk6GJQsqaUBKTNV-1" source="yT2jcX1gNWG2OGTkNdqD-18" target="yT2jcX1gNWG2OGTkNdqD-23">
          <mxGeometry relative="1" as="geometry" />
        </mxCell>
        <mxCell id="yT2jcX1gNWG2OGTkNdqD-25" value="Validation" style="edgeLabel;html=1;align=center;verticalAlign=middle;resizable=0;points=[];" vertex="1" connectable="0" parent="yT2jcX1gNWG2OGTkNdqD-24">
          <mxGeometry relative="1" as="geometry">
            <mxPoint as="offset" />
          </mxGeometry>
        </mxCell>
        <mxCell id="yT2jcX1gNWG2OGTkNdqD-27" value="" style="edgeStyle=orthogonalEdgeStyle;rounded=0;orthogonalLoop=1;jettySize=auto;html=1;" edge="1" parent="WIyWlLk6GJQsqaUBKTNV-1" source="yT2jcX1gNWG2OGTkNdqD-18" target="yT2jcX1gNWG2OGTkNdqD-26">
          <mxGeometry relative="1" as="geometry" />
        </mxCell>
        <mxCell id="yT2jcX1gNWG2OGTkNdqD-18" value="User enters email and password" style="rounded=1;whiteSpace=wrap;html=1;" vertex="1" parent="WIyWlLk6GJQsqaUBKTNV-1">
          <mxGeometry x="810" y="520" width="120" height="60" as="geometry" />
        </mxCell>
        <mxCell id="yT2jcX1gNWG2OGTkNdqD-42" value="" style="edgeStyle=orthogonalEdgeStyle;rounded=0;orthogonalLoop=1;jettySize=auto;html=1;" edge="1" parent="WIyWlLk6GJQsqaUBKTNV-1" source="yT2jcX1gNWG2OGTkNdqD-21" target="yT2jcX1gNWG2OGTkNdqD-41">
          <mxGeometry relative="1" as="geometry" />
        </mxCell>
        <mxCell id="yT2jcX1gNWG2OGTkNdqD-21" value="User selects Sign up for new user" style="rounded=1;whiteSpace=wrap;html=1;" vertex="1" parent="WIyWlLk6GJQsqaUBKTNV-1">
          <mxGeometry x="1040" y="310" width="120" height="60" as="geometry" />
        </mxCell>
        <mxCell id="yT2jcX1gNWG2OGTkNdqD-23" value="" style="shape=cylinder3;whiteSpace=wrap;html=1;boundedLbl=1;backgroundOutline=1;size=15;" vertex="1" parent="WIyWlLk6GJQsqaUBKTNV-1">
          <mxGeometry x="670" y="510" width="60" height="80" as="geometry" />
        </mxCell>
        <mxCell id="yT2jcX1gNWG2OGTkNdqD-29" value="" style="edgeStyle=orthogonalEdgeStyle;rounded=0;orthogonalLoop=1;jettySize=auto;html=1;" edge="1" parent="WIyWlLk6GJQsqaUBKTNV-1" source="yT2jcX1gNWG2OGTkNdqD-26" target="yT2jcX1gNWG2OGTkNdqD-28">
          <mxGeometry relative="1" as="geometry" />
        </mxCell>
        <mxCell id="yT2jcX1gNWG2OGTkNdqD-32" value="No" style="edgeLabel;html=1;align=center;verticalAlign=middle;resizable=0;points=[];" vertex="1" connectable="0" parent="yT2jcX1gNWG2OGTkNdqD-29">
          <mxGeometry x="-0.2222" y="-1" relative="1" as="geometry">
            <mxPoint as="offset" />
          </mxGeometry>
        </mxCell>
        <mxCell id="yT2jcX1gNWG2OGTkNdqD-34" value="Yes" style="edgeStyle=orthogonalEdgeStyle;rounded=0;orthogonalLoop=1;jettySize=auto;html=1;" edge="1" parent="WIyWlLk6GJQsqaUBKTNV-1" source="yT2jcX1gNWG2OGTkNdqD-26" target="yT2jcX1gNWG2OGTkNdqD-33">
          <mxGeometry relative="1" as="geometry" />
        </mxCell>
        <mxCell id="yT2jcX1gNWG2OGTkNdqD-26" value="Is email id and&lt;br&gt;&amp;nbsp;password correct?" style="rhombus;whiteSpace=wrap;html=1;" vertex="1" parent="WIyWlLk6GJQsqaUBKTNV-1">
          <mxGeometry x="800" y="680" width="140" height="150" as="geometry" />
        </mxCell>
        <mxCell id="yT2jcX1gNWG2OGTkNdqD-31" value="" style="edgeStyle=orthogonalEdgeStyle;rounded=0;orthogonalLoop=1;jettySize=auto;html=1;" edge="1" parent="WIyWlLk6GJQsqaUBKTNV-1" source="yT2jcX1gNWG2OGTkNdqD-28" target="yT2jcX1gNWG2OGTkNdqD-30">
          <mxGeometry relative="1" as="geometry" />
        </mxCell>
        <mxCell id="yT2jcX1gNWG2OGTkNdqD-28" value="User asked to reset password" style="rounded=1;whiteSpace=wrap;html=1;" vertex="1" parent="WIyWlLk6GJQsqaUBKTNV-1">
          <mxGeometry x="810" y="920" width="120" height="60" as="geometry" />
        </mxCell>
        <mxCell id="yT2jcX1gNWG2OGTkNdqD-37" style="edgeStyle=orthogonalEdgeStyle;rounded=0;orthogonalLoop=1;jettySize=auto;html=1;entryX=0.5;entryY=1;entryDx=0;entryDy=0;" edge="1" parent="WIyWlLk6GJQsqaUBKTNV-1" source="yT2jcX1gNWG2OGTkNdqD-30" target="yT2jcX1gNWG2OGTkNdqD-35">
          <mxGeometry relative="1" as="geometry" />
        </mxCell>
        <mxCell id="yT2jcX1gNWG2OGTkNdqD-30" value="User resets password" style="rounded=1;whiteSpace=wrap;html=1;" vertex="1" parent="WIyWlLk6GJQsqaUBKTNV-1">
          <mxGeometry x="1040" y="920" width="120" height="60" as="geometry" />
        </mxCell>
        <mxCell id="yT2jcX1gNWG2OGTkNdqD-36" value="" style="edgeStyle=orthogonalEdgeStyle;rounded=0;orthogonalLoop=1;jettySize=auto;html=1;" edge="1" parent="WIyWlLk6GJQsqaUBKTNV-1" source="yT2jcX1gNWG2OGTkNdqD-33" target="yT2jcX1gNWG2OGTkNdqD-35">
          <mxGeometry relative="1" as="geometry" />
        </mxCell>
        <mxCell id="yT2jcX1gNWG2OGTkNdqD-38" value="Yes" style="edgeLabel;html=1;align=center;verticalAlign=middle;resizable=0;points=[];" vertex="1" connectable="0" parent="yT2jcX1gNWG2OGTkNdqD-36">
          <mxGeometry x="0.1" relative="1" as="geometry">
            <mxPoint as="offset" />
          </mxGeometry>
        </mxCell>
        <mxCell id="yT2jcX1gNWG2OGTkNdqD-33" value="Has user completed &lt;br&gt;all configurations?&amp;nbsp;" style="rhombus;whiteSpace=wrap;html=1;" vertex="1" parent="WIyWlLk6GJQsqaUBKTNV-1">
          <mxGeometry x="1040" y="680" width="140" height="150" as="geometry" />
        </mxCell>
        <mxCell id="yT2jcX1gNWG2OGTkNdqD-40" value="" style="edgeStyle=orthogonalEdgeStyle;rounded=0;orthogonalLoop=1;jettySize=auto;html=1;" edge="1" parent="WIyWlLk6GJQsqaUBKTNV-1" source="yT2jcX1gNWG2OGTkNdqD-35" target="yT2jcX1gNWG2OGTkNdqD-39">
          <mxGeometry relative="1" as="geometry" />
        </mxCell>
        <mxCell id="yT2jcX1gNWG2OGTkNdqD-35" value="User sent to dashboard" style="rounded=1;whiteSpace=wrap;html=1;" vertex="1" parent="WIyWlLk6GJQsqaUBKTNV-1">
          <mxGeometry x="1280" y="725" width="120" height="60" as="geometry" />
        </mxCell>
        <mxCell id="yT2jcX1gNWG2OGTkNdqD-39" value="A" style="ellipse;whiteSpace=wrap;html=1;aspect=fixed;" vertex="1" parent="WIyWlLk6GJQsqaUBKTNV-1">
          <mxGeometry x="1480" y="715" width="80" height="80" as="geometry" />
        </mxCell>
        <mxCell id="yT2jcX1gNWG2OGTkNdqD-44" value="Save" style="edgeStyle=orthogonalEdgeStyle;rounded=0;orthogonalLoop=1;jettySize=auto;html=1;" edge="1" parent="WIyWlLk6GJQsqaUBKTNV-1" source="yT2jcX1gNWG2OGTkNdqD-41" target="yT2jcX1gNWG2OGTkNdqD-43">
          <mxGeometry relative="1" as="geometry" />
        </mxCell>
        <mxCell id="yT2jcX1gNWG2OGTkNdqD-46" value="" style="edgeStyle=orthogonalEdgeStyle;rounded=0;orthogonalLoop=1;jettySize=auto;html=1;" edge="1" parent="WIyWlLk6GJQsqaUBKTNV-1" source="yT2jcX1gNWG2OGTkNdqD-41" target="yT2jcX1gNWG2OGTkNdqD-45">
          <mxGeometry relative="1" as="geometry" />
        </mxCell>
        <mxCell id="yT2jcX1gNWG2OGTkNdqD-41" value="User enters email id&lt;br&gt;and password" style="rounded=1;whiteSpace=wrap;html=1;" vertex="1" parent="WIyWlLk6GJQsqaUBKTNV-1">
          <mxGeometry x="1240" y="310" width="120" height="60" as="geometry" />
        </mxCell>
        <mxCell id="yT2jcX1gNWG2OGTkNdqD-43" value="" style="shape=cylinder3;whiteSpace=wrap;html=1;boundedLbl=1;backgroundOutline=1;size=15;" vertex="1" parent="WIyWlLk6GJQsqaUBKTNV-1">
          <mxGeometry x="1270" y="440" width="60" height="60" as="geometry" />
        </mxCell>
        <mxCell id="yT2jcX1gNWG2OGTkNdqD-48" value="" style="edgeStyle=orthogonalEdgeStyle;rounded=0;orthogonalLoop=1;jettySize=auto;html=1;" edge="1" parent="WIyWlLk6GJQsqaUBKTNV-1" source="yT2jcX1gNWG2OGTkNdqD-45" target="yT2jcX1gNWG2OGTkNdqD-47">
          <mxGeometry relative="1" as="geometry" />
        </mxCell>
        <mxCell id="yT2jcX1gNWG2OGTkNdqD-45" value="OTP sent to user email id" style="rounded=1;whiteSpace=wrap;html=1;" vertex="1" parent="WIyWlLk6GJQsqaUBKTNV-1">
          <mxGeometry x="1440" y="310" width="120" height="60" as="geometry" />
        </mxCell>
        <mxCell id="yT2jcX1gNWG2OGTkNdqD-50" value="" style="edgeStyle=orthogonalEdgeStyle;rounded=0;orthogonalLoop=1;jettySize=auto;html=1;" edge="1" parent="WIyWlLk6GJQsqaUBKTNV-1" source="yT2jcX1gNWG2OGTkNdqD-47" target="yT2jcX1gNWG2OGTkNdqD-49">
          <mxGeometry relative="1" as="geometry" />
        </mxCell>
        <mxCell id="yT2jcX1gNWG2OGTkNdqD-47" value="User enters OTP on screen" style="rounded=1;whiteSpace=wrap;html=1;" vertex="1" parent="WIyWlLk6GJQsqaUBKTNV-1">
          <mxGeometry x="1640" y="310" width="120" height="60" as="geometry" />
        </mxCell>
        <mxCell id="yT2jcX1gNWG2OGTkNdqD-51" style="edgeStyle=orthogonalEdgeStyle;rounded=0;orthogonalLoop=1;jettySize=auto;html=1;entryX=0.5;entryY=1;entryDx=0;entryDy=0;" edge="1" parent="WIyWlLk6GJQsqaUBKTNV-1" source="yT2jcX1gNWG2OGTkNdqD-49" target="yT2jcX1gNWG2OGTkNdqD-45">
          <mxGeometry relative="1" as="geometry">
            <Array as="points">
              <mxPoint x="1910" y="435" />
              <mxPoint x="1500" y="435" />
            </Array>
          </mxGeometry>
        </mxCell>
        <mxCell id="yT2jcX1gNWG2OGTkNdqD-52" value="No" style="edgeLabel;html=1;align=center;verticalAlign=middle;resizable=0;points=[];" vertex="1" connectable="0" parent="yT2jcX1gNWG2OGTkNdqD-51">
          <mxGeometry x="-0.4949" y="1" relative="1" as="geometry">
            <mxPoint as="offset" />
          </mxGeometry>
        </mxCell>
        <mxCell id="yT2jcX1gNWG2OGTkNdqD-54" value="" style="edgeStyle=orthogonalEdgeStyle;rounded=0;orthogonalLoop=1;jettySize=auto;html=1;" edge="1" parent="WIyWlLk6GJQsqaUBKTNV-1" source="yT2jcX1gNWG2OGTkNdqD-49" target="yT2jcX1gNWG2OGTkNdqD-53">
          <mxGeometry relative="1" as="geometry" />
        </mxCell>
        <mxCell id="yT2jcX1gNWG2OGTkNdqD-55" value="Yes" style="edgeLabel;html=1;align=center;verticalAlign=middle;resizable=0;points=[];" vertex="1" connectable="0" parent="yT2jcX1gNWG2OGTkNdqD-54">
          <mxGeometry x="-0.0667" relative="1" as="geometry">
            <mxPoint as="offset" />
          </mxGeometry>
        </mxCell>
        <mxCell id="yT2jcX1gNWG2OGTkNdqD-49" value="User Verified?" style="rhombus;whiteSpace=wrap;html=1;" vertex="1" parent="WIyWlLk6GJQsqaUBKTNV-1">
          <mxGeometry x="1840" y="265" width="140" height="150" as="geometry" />
        </mxCell>
        <mxCell id="yT2jcX1gNWG2OGTkNdqD-53" value="User enters OTP on screen" style="rounded=1;whiteSpace=wrap;html=1;" vertex="1" parent="WIyWlLk6GJQsqaUBKTNV-1">
          <mxGeometry x="2040" y="310" width="120" height="60" as="geometry" />
        </mxCell>
      </root>
    </mxGraphModel>
  </diagram>
</mxfile>
